<svg width="1836" height="785" viewBox="0 0 1836 785" fill="none" xmlns="http://www.w3.org/2000/svg">
<path d="M142 279.002H216.307L272.741 430.559H273.657L325.958 279.002H395.239L307.17 502.2H234.226L142 279.002Z" fill="white"/>
<path d="M456.7 279.002H525.511V502.2H456.7V279.002Z" fill="white"/>
<path d="M586.971 279.002H661.278L717.713 430.559H718.629L770.93 279.002H840.211L752.142 502.2H679.197L586.995 279.002H586.971Z" fill="white"/>
<path d="M1111.01 462.034C1099.98 476.108 1086.07 486.988 1069.25 494.624C1052.41 502.258 1034.98 506.075 1016.94 506.075C999.804 506.069 983.689 503.287 968.548 497.774C953.408 492.26 940.26 484.369 929.105 474.099C917.95 463.83 909.172 451.507 902.749 437.106C896.326 422.705 893.131 406.643 893.144 388.873C893.157 371.102 896.379 355.06 902.817 340.651C909.254 326.266 918.038 313.945 929.218 303.69C940.374 293.435 953.535 285.556 968.676 280.054C983.817 274.552 999.957 271.804 1017.07 271.808C1032.97 271.826 1047.41 274.577 1060.41 280.107C1073.41 285.638 1084.4 293.522 1093.41 303.785C1102.43 314.048 1109.37 326.378 1114.27 340.778C1119.14 355.177 1121.58 371.251 1121.57 388.998L1121.54 410.581L961.908 410.489C964.651 423.658 970.599 434.153 979.778 441.952C988.956 449.774 1000.25 453.671 1013.72 453.693C1025.03 453.707 1034.59 451.191 1042.4 446.144C1050.21 441.098 1057.01 434.591 1062.83 426.65L1110.97 462.031L1111.01 462.034ZM1052.84 363.711C1053.15 352.074 1049.34 342.127 1041.38 333.844C1033.43 325.561 1023.2 321.432 1010.65 321.43C1003.01 321.424 996.274 322.637 990.469 325.095C984.64 327.551 979.673 330.684 975.544 334.491C971.414 338.322 968.196 342.76 965.89 347.807C963.584 352.853 962.277 358.135 961.971 363.652L1052.79 363.709L1052.84 363.711Z" fill="white"/>
<path d="M1199.39 155H1268.2V367.171L1344.36 279.002H1428.77L1340.23 379.586L1431.07 502.2H1344.36L1269.14 389.226H1268.23V502.2H1199.41V155H1199.39Z" fill="white"/>
<path d="M1629.68 474.198H1628.77C1621.11 486.142 1610.94 494.724 1598.26 499.92C1585.58 505.116 1572.19 507.726 1558.13 507.726C1547.72 507.726 1537.72 506.268 1528.09 503.352C1518.46 500.437 1509.96 496.087 1502.63 490.256C1495.28 484.449 1489.48 477.254 1485.2 468.672C1480.91 460.091 1478.79 450.145 1478.79 438.812C1478.79 425.951 1481.16 415.089 1485.91 406.201C1490.65 397.337 1497.06 389.978 1505.17 384.147C1513.27 378.34 1522.52 373.802 1532.93 370.604C1543.33 367.383 1554.11 365.032 1565.26 363.48C1576.42 361.952 1587.58 361.035 1598.75 360.729C1609.91 360.424 1620.24 360.283 1629.71 360.283C1629.71 348.033 1625.34 338.322 1616.63 331.128C1607.91 323.933 1597.58 320.336 1585.65 320.336C1573.72 320.336 1564.02 322.71 1554.7 327.46C1545.37 332.209 1537.04 338.722 1529.69 346.975L1492.98 309.309C1505.82 297.365 1520.81 288.407 1537.93 282.435C1555.05 276.463 1572.8 273.477 1591.15 273.477C1611.32 273.477 1627.92 275.992 1640.91 281.047C1653.9 286.102 1664.3 293.532 1672.1 303.313C1679.9 313.118 1685.32 325.132 1688.37 339.357C1691.43 353.605 1692.95 370.063 1692.95 388.732V502.177H1629.64V474.151L1629.68 474.198ZM1612.7 404.391C1607.49 404.391 1601.01 404.626 1593.21 405.073C1585.42 405.519 1577.92 406.836 1570.74 408.976C1563.55 411.115 1557.44 414.336 1552.4 418.616C1547.35 422.918 1544.83 428.89 1544.83 436.532C1544.83 444.808 1548.36 450.921 1555.38 454.894C1562.4 458.868 1569.75 460.866 1577.41 460.866C1584.12 460.866 1590.63 459.949 1596.9 458.116C1603.17 456.282 1608.74 453.672 1613.64 450.31C1618.53 446.947 1622.43 442.668 1625.34 437.449C1628.25 432.252 1629.71 426.116 1629.71 419.086V404.391H1612.73H1612.7Z" fill="white"/>
<path d="M492.303 629C513.549 629 530.771 611.757 530.771 590.487C530.771 569.218 513.549 551.975 492.303 551.975C471.057 551.975 453.834 569.218 453.834 590.487C453.834 611.757 471.057 629 492.303 629Z" fill="#64C431"/>
</svg>
