<svg width="1851" height="791" viewBox="0 0 1851 791" fill="none" xmlns="http://www.w3.org/2000/svg">
<path d="M145.766 281.725H220.37L277.03 433.83H277.95L330.46 281.725H400.018L311.597 505.73H238.361L145.766 281.725Z" fill="#00008B"/>
<path d="M461.724 281.725H530.811V505.73H461.724V281.725Z" fill="#00008B"/>
<path d="M592.517 281.725H667.12L723.781 433.83H724.7L777.21 281.725H846.768L758.347 505.73H685.111L592.54 281.725H592.517Z" fill="#00008B"/>
<path d="M1118.36 465.829C1107.23 479.91 1093.22 490.773 1076.3 498.37C1059.37 505.965 1041.84 509.726 1023.74 509.654C1006.53 509.58 990.363 506.724 975.184 501.13C960.005 495.536 946.836 487.564 935.678 477.213C924.519 466.862 915.755 454.46 909.364 439.981C902.972 425.503 899.829 409.37 899.913 391.536C899.996 373.701 903.296 357.614 909.817 343.179C916.336 328.768 925.205 316.437 936.471 306.19C947.712 295.942 960.957 288.087 976.18 282.626C991.404 277.164 1007.62 274.471 1024.8 274.543C1040.76 274.624 1055.25 277.442 1068.28 283.045C1081.31 288.647 1092.31 296.603 1101.32 306.939C1110.33 317.275 1117.25 329.678 1122.11 344.149C1126.95 358.619 1129.33 374.761 1129.25 392.571L1129.14 414.232L968.865 413.504C971.566 426.731 977.497 437.288 986.681 445.152C995.864 453.039 1007.18 456.995 1020.71 457.07C1032.06 457.129 1041.68 454.642 1049.54 449.608C1057.4 444.575 1064.25 438.072 1070.13 430.126L1118.31 465.826L1118.36 465.829ZM1060.34 366.92C1060.7 355.242 1056.92 345.244 1048.96 336.899C1041.01 328.555 1030.76 324.37 1018.16 324.318C1010.48 324.282 1003.72 325.473 997.88 327.916C992.019 330.358 987.019 333.482 982.859 337.286C978.697 341.114 975.448 345.556 973.113 350.611C970.777 355.667 969.445 360.962 969.115 366.498L1060.3 366.917L1060.34 366.92Z" fill="#00008B"/>
<path d="M1207.38 157.275H1276.47V370.213L1352.94 281.725H1437.68L1348.79 382.672L1439.99 505.73H1352.94L1277.41 392.347H1276.49V505.73H1207.41V157.275H1207.38Z" fill="#00008B"/>
<path d="M1639.4 477.626H1638.48C1630.79 489.613 1620.58 498.226 1607.85 503.441C1595.12 508.656 1581.68 511.275 1567.55 511.275C1557.11 511.275 1547.06 509.812 1537.4 506.886C1527.73 503.96 1519.19 499.595 1511.84 493.743C1504.46 487.914 1498.63 480.694 1494.34 472.081C1490.03 463.468 1487.9 453.487 1487.9 442.113C1487.9 429.205 1490.29 418.304 1495.05 409.384C1499.81 400.488 1506.25 393.102 1514.38 387.25C1522.52 381.422 1531.81 376.868 1542.25 373.658C1552.7 370.426 1563.52 368.066 1574.72 366.509C1585.92 364.975 1597.12 364.054 1608.34 363.748C1619.54 363.441 1629.92 363.299 1639.42 363.299C1639.42 351.005 1635.04 341.26 1626.29 334.039C1617.54 326.819 1607.17 323.208 1595.19 323.208C1583.21 323.208 1573.47 325.592 1564.11 330.358C1554.75 335.125 1546.38 341.661 1539 349.944L1502.15 312.141C1515.04 300.154 1530.09 291.164 1547.28 285.17C1564.46 279.176 1582.29 276.18 1600.71 276.18C1620.96 276.18 1637.63 278.705 1650.67 283.778C1663.71 288.851 1674.15 296.308 1681.98 306.124C1689.81 315.964 1695.26 328.022 1698.32 342.298C1701.39 356.598 1702.92 373.116 1702.92 391.852V505.707H1639.35V477.579L1639.4 477.626ZM1622.35 407.567C1617.12 407.567 1610.61 407.803 1602.78 408.251C1594.95 408.7 1587.43 410.021 1580.22 412.168C1573 414.316 1566.87 417.549 1561.8 421.843C1556.73 426.161 1554.21 432.155 1554.21 439.824C1554.21 448.13 1557.74 454.265 1564.79 458.253C1571.84 462.241 1579.22 464.247 1586.91 464.247C1593.66 464.247 1600.19 463.327 1606.48 461.486C1612.78 459.645 1618.37 457.026 1623.29 453.652C1628.2 450.277 1632.11 445.983 1635.04 440.744C1637.96 435.529 1639.42 429.371 1639.42 422.315V407.567H1622.37H1622.35Z" fill="#00008B"/>
<path d="M497.47 632.988C518.8 632.988 536.092 615.683 536.092 594.336C536.092 572.99 518.8 555.685 497.47 555.685C476.139 555.685 458.848 572.99 458.848 594.336C458.848 615.683 476.139 632.988 497.47 632.988Z" fill="#64C431"/>
</svg>
